<?xml version="1.0" standalone="no"?>
<!DOCTYPE svg PUBLIC "-//W3C//DTD SVG 20010904//EN"
 "http://www.w3.org/TR/2001/REC-SVG-20010904/DTD/svg10.dtd">
<svg version="1.0" xmlns="http://www.w3.org/2000/svg"
 width="300.000000pt" height="300.000000pt" viewBox="0 0 300.000000 300.000000"
 preserveAspectRatio="xMidYMid meet">
<metadata>
Created by potrace 1.14, written by Peter Selinger 2001-2017
</metadata>
<g transform="translate(0.000000,300.000000) scale(0.100000,-0.100000)"
fill="#000000" stroke="none">
<path d="M575 2329 c-308 -19 -315 -19 -325 -39 -5 -10 -19 -159 -30 -332 -11
-172 -29 -423 -40 -558 -29 -349 -36 -557 -21 -602 15 -45 68 -93 118 -107 21
-6 86 -11 145 -11 95 0 107 2 112 18 4 10 15 137 26 281 10 145 20 264 22 265
2 2 32 -2 67 -8 l64 -11 33 -122 c58 -214 122 -338 207 -407 37 -30 43 -31
130 -31 81 0 99 4 144 28 61 32 120 87 129 121 3 14 -2 38 -11 57 -15 29 -146
221 -252 370 l-33 46 59 37 c157 96 235 264 235 501 0 180 -39 290 -136 381
-120 113 -289 145 -643 123z m305 -365 c64 -37 75 -64 75 -177 0 -93 -2 -106
-28 -149 -51 -87 -133 -120 -253 -100 -36 6 -68 12 -70 14 -2 2 2 99 8 215
l12 212 35 4 c80 10 188 1 221 -19z"/>
<path d="M2192 2330 c-363 -51 -590 -324 -643 -775 -16 -133 -6 -338 20 -438
61 -233 225 -395 446 -442 103 -22 275 -19 369 5 155 39 279 136 310 241 22
73 40 202 32 232 -15 63 -66 55 -176 -29 -109 -83 -156 -99 -285 -99 -116 0
-150 10 -203 59 -75 68 -109 260 -82 472 20 156 60 269 121 339 88 100 267
116 308 28 8 -15 17 -80 21 -144 4 -63 10 -121 14 -127 12 -19 146 -15 215 7
83 26 128 62 158 128 22 48 24 65 21 151 -3 86 -7 105 -36 164 -52 106 -146
176 -289 213 -72 19 -237 27 -321 15z"/>
</g>
</svg>
